<svg width="96" height="81" viewBox="0 0 96 81" fill="none" xmlns="http://www.w3.org/2000/svg">
<g clip-path="url(#clip0_29_2324)">
<g clip-path="url(#clip1_29_2324)">
<g clip-path="url(#clip2_29_2324)">
<g clip-path="url(#clip3_29_2324)">
<g clip-path="url(#clip4_29_2324)">
<g clip-path="url(#clip5_29_2324)">
<g clip-path="url(#clip6_29_2324)">
<g clip-path="url(#clip7_29_2324)">
<g clip-path="url(#clip8_29_2324)">
<path d="M20.9734 49.1963L23.0356 49.5459L23.0065 51.1485H12.4923L12.3181 50.2161C12.9958 49.6916 13.7219 49.2351 14.4964 48.8466L13.596 46.4282H7.67088L6.65431 49.138L9.00694 49.5459L8.9779 51.1485H0.642042L0.467773 50.2161C1.12612 49.6916 1.93938 49.1866 2.90754 48.7009L8.91981 33.724L8.42605 32.3545L13.7122 31.0433L20.9734 49.1963ZM8.65841 43.7475H12.6085L10.6335 38.3569L8.65841 43.7475ZM37.6161 37.104L37.6451 38.6483L36.3671 39.5225L32.8527 48.089L31.5457 51.0611C30.7325 51.2942 29.6578 51.4108 28.3217 51.4108C27.5278 51.4108 26.8598 51.3622 26.3176 51.2651L22.1061 40.0178L20.2182 38.7357V37.104H27.3342L29.4835 44.0389L29.8902 45.962H30.2096C30.5969 43.1259 30.897 40.1732 31.11 37.104H37.6161ZM43.1055 35.3266C41.5371 34.6078 40.2495 33.6172 39.2426 32.3545C40.0752 30.7422 41.1499 29.431 42.4666 28.4209C43.9382 29.2562 45.158 30.3828 46.1262 31.8009C45.3904 33.2384 44.3835 34.4136 43.1055 35.3266ZM45.7196 38.0364V48.5844C46.5522 48.934 47.2493 49.3128 47.8108 49.7208L47.7817 51.1485H37.7032L37.6742 50.1287C38.2938 49.7402 39.0296 49.3808 39.8816 49.0506V39.6099L37.7032 39.0563L37.6451 37.6285C39.504 36.968 41.6243 36.5892 44.0059 36.4921L45.7196 38.0364ZM63.5182 39.0271L59.8876 43.4852C58.4547 42.242 57.293 41.533 56.4022 41.3582V48.2347C57.7577 48.7204 58.8323 49.2157 59.6262 49.7208L59.5972 51.1485H48.4149L48.3859 50.1287C49.0442 49.7208 49.7703 49.3711 50.5642 49.0797V39.6099L48.3859 39.0563L48.3278 37.6285C50.1867 36.968 52.3069 36.5892 54.6886 36.4921L56.4022 39.0563L58.4354 36.6669C58.8033 36.5504 59.2099 36.4921 59.6553 36.4921C60.5266 36.4921 61.3302 36.7194 62.066 37.1739C62.8018 37.6324 63.2859 38.2501 63.5182 39.0271ZM79.2896 47.9434L79.3767 49.2546L75.2233 51.6439C73.9066 51.6439 72.8222 50.9252 71.9703 49.4877L68.9496 51.4982L67.8459 51.5856C66.5486 51.5856 65.4642 51.201 64.5929 50.4317C63.7215 49.6664 63.2859 48.7689 63.2859 47.7394C63.2859 47.0789 63.495 46.4243 63.9132 45.7755C64.3276 45.1228 64.9414 44.5925 65.7547 44.1845L71.2151 44.068V41.8826C71.2151 40.4452 70.7794 39.4933 69.9081 39.0271C69.4821 39.066 69.1239 39.1631 68.8334 39.3185L67.9911 42.582L64.68 42.6111C64.3508 41.4844 64.1863 40.3966 64.1863 39.3476L64.3024 37.9199C65.5417 37.4731 66.9416 37.1137 68.5023 36.8418C70.0591 36.5698 71.3119 36.4338 72.2607 36.4338C74.1389 36.4338 75.6202 37.1526 76.7046 38.59C76.9369 38.9397 77.0531 39.8333 77.0531 41.2707V47.0984C77.0531 47.7005 77.2855 48.0016 77.7502 48.0016L78.7086 47.9725L79.2896 47.9434ZM68.9786 47.3023C68.9786 47.788 69.1239 48.1959 69.4143 48.5261L71.2151 48.1473V45.962C69.7241 45.962 68.9786 46.4088 68.9786 47.3023Z" fill="white"/>
</g>
</g>
</g>
</g>
</g>
</g>
</g>
<path d="M55.4373 0C77.4757 0 95.3416 17.9232 95.3416 40.0324C95.3416 62.1415 77.4757 80.0648 55.4373 80.0648C38.4409 80.0648 23.9262 69.4044 18.1743 54.3851H19.2949C24.9928 68.8136 39.0271 79.0176 55.4373 79.0176C76.8994 79.0176 94.2978 61.5634 94.2978 40.0324C94.2978 18.5014 76.8994 1.04713 55.4373 1.04713C39.0275 1.04713 24.9928 11.2512 19.2949 25.6797H18.1743C23.9262 10.6604 38.4405 0 55.4373 0V0Z" fill="white"/>
</g>
</g>
<defs>
<clipPath id="clip0_29_2324">
<rect width="96" height="81" fill="white"/>
</clipPath>
<clipPath id="clip1_29_2324">
<rect width="96" height="81" fill="white"/>
</clipPath>
<clipPath id="clip2_29_2324">
<rect width="78.9147" height="23.223" fill="white" transform="translate(0.465088 28.4209)"/>
</clipPath>
<clipPath id="clip3_29_2324">
<rect width="78.9147" height="23.223" fill="white" transform="translate(0.465088 28.4209)"/>
</clipPath>
<clipPath id="clip4_29_2324">
<rect width="78.9147" height="23.223" fill="white" transform="translate(0.465088 28.4209)"/>
</clipPath>
<clipPath id="clip5_29_2324">
<rect width="78.9147" height="23.223" fill="white" transform="translate(0.465088 28.4209)"/>
</clipPath>
<clipPath id="clip6_29_2324">
<rect width="78.9147" height="23.223" fill="white" transform="translate(0.465088 28.4209)"/>
</clipPath>
<clipPath id="clip7_29_2324">
<rect width="78.9147" height="23.223" fill="white" transform="translate(0.465088 28.4209)"/>
</clipPath>
<clipPath id="clip8_29_2324">
<rect width="78.9147" height="23.223" fill="white" transform="translate(0.465088 28.4209)"/>
</clipPath>
</defs>
</svg>
