<svg width="80" height="68" viewBox="0 0 80 68" fill="none" xmlns="http://www.w3.org/2000/svg">
<g clip-path="url(#clip0_29_2879)">
<g clip-path="url(#clip1_29_2879)">
<g clip-path="url(#clip2_29_2879)">
<g clip-path="url(#clip3_29_2879)">
<g clip-path="url(#clip4_29_2879)">
<g clip-path="url(#clip5_29_2879)">
<g clip-path="url(#clip6_29_2879)">
<g clip-path="url(#clip7_29_2879)">
<path d="M17.4779 41.3006L19.1963 41.5941L19.1721 42.9395H10.4103L10.2651 42.1567C10.8298 41.7164 11.4349 41.3332 12.0804 41.0071L11.33 38.9767H6.39242L5.54528 41.2517L7.50581 41.5941L7.4816 42.9395H0.535056L0.389832 42.1567C0.938456 41.7164 1.61617 41.2924 2.42297 40.8847L7.4332 28.3115L7.02173 27.1618L11.4269 26.061L17.4779 41.3006ZM7.21536 36.7263H10.5071L8.86123 32.2009L7.21536 36.7263ZM31.3467 31.149L31.371 32.4455L30.306 33.1794L27.3773 40.3711L26.2881 42.8661C25.6104 43.0618 24.7149 43.1597 23.6015 43.1597C22.9399 43.1597 22.3832 43.1189 21.9314 43.0374L18.4218 33.5952L16.8486 32.5189V31.149H22.7785L24.5696 36.9709L24.9085 38.5854H25.1747C25.4974 36.2044 25.7476 33.7257 25.9251 31.149H31.3467ZM35.9213 29.6569C34.6143 29.0535 33.5412 28.2218 32.7022 27.1618C33.396 25.8083 34.2916 24.7075 35.3888 23.8595C36.6152 24.5607 37.6317 25.5066 38.4385 26.697C37.8253 27.9038 36.9863 28.8904 35.9213 29.6569ZM38.0997 31.9318V40.7869C38.7935 41.0804 39.3744 41.3984 39.8424 41.7409L39.8181 42.9395H31.4194L31.3952 42.0834C31.9115 41.7572 32.5247 41.4555 33.2347 41.1783V33.2527L31.4194 32.788L31.371 31.5894C32.92 31.0349 34.6869 30.7169 36.6716 30.6354L38.0997 31.9318ZM52.9319 32.7635L49.9064 36.5061C48.7123 35.4624 47.7441 34.8672 47.0019 34.7204V40.4934C48.1314 40.9011 49.027 41.3169 49.6885 41.7409L49.6643 42.9395H40.3458L40.3216 42.0834C40.8702 41.7409 41.4753 41.4474 42.1369 41.2027V33.2527L40.3216 32.788L40.2732 31.5894C41.8222 31.0349 43.5891 30.7169 45.5739 30.6354L47.0019 32.788L48.6962 30.7821C49.0028 30.6843 49.3416 30.6354 49.7127 30.6354C50.4389 30.6354 51.1085 30.8262 51.7217 31.2078C52.3348 31.5926 52.7382 32.1112 52.9319 32.7635ZM66.0746 40.2487L66.1473 41.3495L62.6861 43.3554C61.5888 43.3554 60.6852 42.752 59.9752 41.5452L57.458 43.2331L56.5383 43.3064C55.4572 43.3064 54.5535 42.9836 53.8274 42.3378C53.1013 41.6952 52.7382 40.9418 52.7382 40.0775C52.7382 39.5231 52.9125 38.9735 53.261 38.4288C53.6064 37.8809 54.1179 37.4357 54.7956 37.0932L59.3459 36.9954V35.1607C59.3459 33.954 58.9829 33.1549 58.2568 32.7635C57.9018 32.7961 57.6032 32.8777 57.3612 33.0081L56.6593 35.7478L53.9 35.7723C53.6257 34.8264 53.4886 33.9132 53.4886 33.0326L53.5854 31.834C54.6181 31.4589 55.7847 31.1572 57.0853 30.9289C58.3826 30.7006 59.4266 30.5864 60.2173 30.5864C61.7825 30.5864 63.0169 31.1898 63.9205 32.3966C64.1141 32.6901 64.2109 33.4403 64.2109 34.647V39.5394C64.2109 40.0449 64.4046 40.2977 64.7918 40.2977L65.5906 40.2732L66.0746 40.2487ZM57.4822 39.7106C57.4822 40.1183 57.6032 40.4607 57.8453 40.738L59.3459 40.42V38.5854C58.1035 38.5854 57.4822 38.9604 57.4822 39.7106Z" fill="#DB6B97"/>
</g>
</g>
</g>
</g>
</g>
</g>
</g>
<path d="M46.1977 0C64.5631 0 79.4513 15.0467 79.4513 33.6074C79.4513 52.1682 64.5631 67.2149 46.1977 67.2149C32.034 67.2149 19.9385 58.2654 15.1452 45.6566H16.079C20.8274 57.7694 32.5226 66.3358 46.1977 66.3358C64.0828 66.3358 78.5815 51.6828 78.5815 33.6074C78.5815 15.532 64.0828 0.879068 46.1977 0.879068C32.5229 0.879068 20.8274 9.44543 16.079 21.5582H15.1452C19.9385 8.94948 32.0338 0 46.1977 0V0Z" fill="#DB6B97"/>
</g>
<defs>
<clipPath id="clip0_29_2879">
<rect width="80" height="68" fill="white"/>
</clipPath>
<clipPath id="clip1_29_2879">
<rect width="65.7623" height="19.4959" fill="white" transform="translate(0.387573 23.8595)"/>
</clipPath>
<clipPath id="clip2_29_2879">
<rect width="65.7623" height="19.4959" fill="white" transform="translate(0.387573 23.8595)"/>
</clipPath>
<clipPath id="clip3_29_2879">
<rect width="65.7623" height="19.4959" fill="white" transform="translate(0.387573 23.8595)"/>
</clipPath>
<clipPath id="clip4_29_2879">
<rect width="65.7623" height="19.4959" fill="white" transform="translate(0.387573 23.8595)"/>
</clipPath>
<clipPath id="clip5_29_2879">
<rect width="65.7623" height="19.4959" fill="white" transform="translate(0.387573 23.8595)"/>
</clipPath>
<clipPath id="clip6_29_2879">
<rect width="65.7623" height="19.4959" fill="white" transform="translate(0.387573 23.8595)"/>
</clipPath>
<clipPath id="clip7_29_2879">
<rect width="65.7623" height="19.4959" fill="white" transform="translate(0.387573 23.8595)"/>
</clipPath>
</defs>
</svg>
