<svg width="904" height="543" viewBox="0 0 904 543" fill="none" xmlns="http://www.w3.org/2000/svg">
<g clip-path="url(#clip0_29_2343)">
<path d="M318.306 37.505H195.024C188.551 37.505 183.304 42.7494 183.304 49.2187V207.655C183.304 214.124 188.551 219.368 195.024 219.368H318.306C324.779 219.368 330.026 214.124 330.026 207.655V49.2187C330.026 42.7494 324.779 37.505 318.306 37.505Z" fill="#EFAF00" stroke="black" stroke-width="2" stroke-linecap="round" stroke-linejoin="round"/>
<path d="M284.184 37.505H269.924V219.536H284.184V37.505Z" fill="#1C0E0C"/>
<path d="M718.423 304.342H841.704C848.177 304.342 853.425 299.097 853.425 292.628V172.685C853.425 166.216 848.177 160.971 841.704 160.971L718.423 160.971C711.95 160.971 706.702 166.216 706.702 172.685V292.628C706.702 299.097 711.95 304.342 718.423 304.342Z" fill="#C5DCDD" stroke="black" stroke-width="2" stroke-linecap="round" stroke-linejoin="round"/>
<path d="M752.544 304.474H766.805V160.971H752.544V304.474Z" fill="#1C0E0C"/>
<path d="M836.634 441.749C850.562 450.062 904.773 292.66 902.201 282.974C902.211 282.974 812.033 427.065 836.634 441.749Z" fill="#F4F1ED" stroke="#070707" stroke-width="2" stroke-linecap="round" stroke-linejoin="round"/>
<path d="M825.799 487.06C825.799 487.06 841.216 383.931 901.48 285.694" stroke="#070707" stroke-width="2" stroke-linecap="round" stroke-linejoin="round"/>
<path d="M883.969 405.979C883.969 405.979 855.005 481.777 838.46 473.506C822.218 465.387 883.969 405.979 883.969 405.979Z" fill="#F4F1ED" stroke="#070707" stroke-width="2" stroke-linecap="round" stroke-linejoin="round"/>
<path d="M829.793 487.06C829.793 487.06 865.734 430.459 883.975 406.24" stroke="#070707" stroke-width="2" stroke-linecap="round" stroke-linejoin="round"/>
<path d="M842.008 229.289C842.008 229.289 846.855 400.321 825.799 400.321C801.117 400.321 842.008 229.289 842.008 229.289Z" fill="#F4F1ED" stroke="#070707" stroke-width="2" stroke-linecap="round" stroke-linejoin="round"/>
<path d="M821.895 487.06C821.895 487.06 823.983 335.132 842.008 230.455" stroke="#070707" stroke-width="2" stroke-linecap="round" stroke-linejoin="round"/>
<path d="M770.718 322.785C770.718 322.785 783.372 441.653 804.439 437.993C825.799 434.283 770.718 322.785 770.718 322.785Z" fill="#F4F1ED" stroke="#070707" stroke-width="2" stroke-linecap="round" stroke-linejoin="round"/>
<path d="M771.345 324.012L818.861 487.69" stroke="#070707" stroke-width="2" stroke-linecap="round" stroke-linejoin="round"/>
<path d="M823.983 542.208C816.28 542.208 808.893 539.149 803.447 533.705C798.001 528.262 794.941 520.879 794.941 513.181V505.514C794.941 503.727 795.337 501.962 796.1 500.347C796.864 498.731 797.975 497.304 799.355 496.168L807.069 489.818C809.239 488.035 811.961 487.06 814.77 487.06H833.189C835.998 487.061 838.72 488.036 840.89 489.818L848.603 496.168C849.984 497.304 851.095 498.731 851.859 500.347C852.622 501.962 853.018 503.727 853.018 505.514V513.181C853.018 520.878 849.959 528.26 844.514 533.703C839.069 539.146 831.684 542.206 823.983 542.208Z" fill="#F4F1ED" stroke="#070707" stroke-width="2" stroke-linecap="round" stroke-linejoin="round"/>
<path d="M829.082 339.747L841.245 328.527" stroke="#070707" stroke-width="2" stroke-linecap="round" stroke-linejoin="round"/>
<path d="M828.807 345.489L840.971 334.266" stroke="#070707" stroke-width="2" stroke-linecap="round" stroke-linejoin="round"/>
<path d="M828.807 291.523L832.543 301.665" stroke="#070707" stroke-width="2" stroke-linecap="round" stroke-linejoin="round"/>
<path d="M853.454 386.666H869.02" stroke="#070707" stroke-width="2" stroke-linecap="round" stroke-linejoin="round"/>
<path d="M854.549 382.839H870.116" stroke="#070707" stroke-width="2" stroke-linecap="round" stroke-linejoin="round"/>
<path d="M878.417 327.565H890.858" stroke="#070707" stroke-width="2" stroke-linecap="round" stroke-linejoin="round"/>
<path d="M784.717 403.925L796.541 410.809" stroke="#070707" stroke-width="2" stroke-linecap="round" stroke-linejoin="round"/>
<path d="M785.809 409.121L797.911 416.276" stroke="#070707" stroke-width="2" stroke-linecap="round" stroke-linejoin="round"/>
<path d="M847.162 460.135H857.846" stroke="#070707" stroke-width="2" stroke-linecap="round" stroke-linejoin="round"/>
<path d="M739.983 1.65036H295.721C289.096 1.65036 283.726 7.01764 283.726 13.6385V322.973C283.726 329.594 289.096 334.961 295.721 334.961H739.983C746.608 334.961 751.979 329.594 751.979 322.973V13.6385C751.979 7.01764 746.608 1.65036 739.983 1.65036Z" fill="#F4F1ED" stroke="#070707" stroke-width="2" stroke-linecap="round" stroke-linejoin="round"/>
<path d="M283.726 29.3891H751.979" stroke="#070707" stroke-width="2" stroke-linecap="round" stroke-linejoin="round"/>
<path d="M353.426 13.0733H351.054C349.182 13.0733 347.664 14.5898 347.664 16.4605V18.8305C347.664 20.7011 349.182 22.2176 351.054 22.2176H353.426C355.298 22.2176 356.816 20.7011 356.816 18.8305V16.4605C356.816 14.5898 355.298 13.0733 353.426 13.0733Z" fill="#FFEFF0"/>
<path d="M337.814 13.0733H335.442C333.57 13.0733 332.052 14.5898 332.052 16.4605V18.8305C332.052 20.7011 333.57 22.2176 335.442 22.2176H337.814C339.686 22.2176 341.204 20.7011 341.204 18.8305V16.4605C341.204 14.5898 339.686 13.0733 337.814 13.0733Z" fill="#FFEFF0"/>
<path d="M322.2 13.0733H319.828C317.956 13.0733 316.438 14.5898 316.438 16.4605V18.8305C316.438 20.7011 317.956 22.2176 319.828 22.2176H322.2C324.072 22.2176 325.59 20.7011 325.59 18.8305V16.4605C325.59 14.5898 324.072 13.0733 322.2 13.0733Z" fill="#FFEFF0"/>
<path d="M351.539 11.3972H349.167C347.294 11.3972 345.777 12.9137 345.777 14.7843V17.1543C345.777 19.025 347.294 20.5415 349.167 20.5415H351.539C353.411 20.5415 354.928 19.025 354.928 17.1543V14.7843C354.928 12.9137 353.411 11.3972 351.539 11.3972Z" fill="#C5DCDD" stroke="black" stroke-width="2" stroke-linecap="round" stroke-linejoin="round"/>
<path d="M335.924 11.3972H333.552C331.68 11.3972 330.162 12.9137 330.162 14.7843V17.1543C330.162 19.025 331.68 20.5415 333.552 20.5415H335.924C337.796 20.5415 339.314 19.025 339.314 17.1543V14.7843C339.314 12.9137 337.796 11.3972 335.924 11.3972Z" fill="#EFAF00" stroke="black" stroke-width="2" stroke-linecap="round" stroke-linejoin="round"/>
<path d="M320.313 11.3972H317.941C316.068 11.3972 314.551 12.9137 314.551 14.7843V17.1543C314.551 19.025 316.068 20.5415 317.941 20.5415H320.313C322.185 20.5415 323.702 19.025 323.702 17.1543V14.7843C323.702 12.9137 322.185 11.3972 320.313 11.3972Z" fill="#F46F40" stroke="black" stroke-width="2" stroke-linecap="round" stroke-linejoin="round"/>
<path d="M668.325 237.157H372.918C369.775 237.157 367.227 239.703 367.227 242.844V292.528C367.227 295.669 369.775 298.215 372.918 298.215H668.325C671.468 298.215 674.016 295.669 674.016 292.528V242.844C674.016 239.703 671.468 237.157 668.325 237.157Z" stroke="#070707" stroke-width="2" stroke-linecap="round" stroke-linejoin="round"/>
<path d="M621.038 254.125H585.628V281.46H621.038V254.125Z" fill="#EFAF00" stroke="black" stroke-width="2" stroke-linecap="round" stroke-linejoin="round"/>
<path d="M636.033 281.46H621.038V260.956H628.536L636.033 271.813V281.46Z" fill="#F4F1ED" stroke="#070707" stroke-width="2" stroke-linecap="round" stroke-linejoin="round"/>
<path d="M623.753 264.754H627.579L631.408 270.291H623.753V264.754Z" fill="#F4F1ED" stroke="#070707" stroke-width="2" stroke-linecap="round" stroke-linejoin="round"/>
<path d="M596.072 285.57C598.196 285.57 599.917 283.849 599.917 281.727C599.917 279.605 598.196 277.885 596.072 277.885C593.948 277.885 592.226 279.605 592.226 281.727C592.226 283.849 593.948 285.57 596.072 285.57Z" fill="#F4F1ED" stroke="#070707" stroke-width="2" stroke-linecap="round" stroke-linejoin="round"/>
<path d="M628.484 285.57C630.608 285.57 632.329 283.849 632.329 281.727C632.329 279.605 630.608 277.885 628.484 277.885C626.36 277.885 624.638 279.605 624.638 281.727C624.638 283.849 626.36 285.57 628.484 285.57Z" fill="#F4F1ED" stroke="#070707" stroke-width="2" stroke-linecap="round" stroke-linejoin="round"/>
<path d="M613.929 260.956H602.635" stroke="#070707" stroke-width="2" stroke-linecap="round" stroke-linejoin="round"/>
<path d="M609.854 265.626H598.563" stroke="#070707" stroke-width="2" stroke-linecap="round" stroke-linejoin="round"/>
<path d="M613.929 270.292H602.635" stroke="#070707" stroke-width="2" stroke-linecap="round" stroke-linejoin="round"/>
<path d="M552.854 285.52C561.638 285.52 568.759 278.403 568.759 269.624C568.759 260.845 561.638 253.728 552.854 253.728C544.07 253.728 536.948 260.845 536.948 269.624C536.948 278.403 544.07 285.52 552.854 285.52Z" fill="#F4F1ED" stroke="#070707" stroke-width="2" stroke-linecap="round" stroke-linejoin="round"/>
<path d="M552.922 253.776V285.568" stroke="#070707" stroke-width="2" stroke-linecap="round" stroke-linejoin="round"/>
<path d="M555.733 253.867C555.733 253.867 566.336 266.162 555.733 285.465V253.867Z" fill="#F4F1ED"/>
<path d="M555.733 253.867C555.733 253.867 566.336 266.162 555.733 285.465" stroke="#070707" stroke-width="2" stroke-linecap="round" stroke-linejoin="round"/>
<path d="M550.107 253.867C550.107 253.867 539.505 266.162 550.107 285.465" stroke="#070707" stroke-width="2" stroke-linecap="round" stroke-linejoin="round"/>
<path d="M537.016 269.672H568.824" stroke="#070707" stroke-width="2" stroke-linecap="round" stroke-linejoin="round"/>
<path d="M543.014 282.109C543.014 282.109 552.637 276.329 562.613 282.109" stroke="#070707" stroke-width="2" stroke-linecap="round" stroke-linejoin="round"/>
<path d="M543.014 257.309C543.014 257.309 552.637 263.089 562.613 257.309" stroke="#070707" stroke-width="2" stroke-linecap="round" stroke-linejoin="round"/>
<path d="M506.786 277.436C513.225 277.436 518.445 272.476 518.445 266.358C518.445 260.24 513.225 255.281 506.786 255.281C500.347 255.281 495.127 260.24 495.127 266.358C495.127 272.476 500.347 277.436 506.786 277.436Z" fill="#FFEFF0"/>
<path d="M504.585 276.554C511.214 276.554 516.587 271.45 516.587 265.154C516.587 258.858 511.214 253.754 504.585 253.754C497.957 253.754 492.583 258.858 492.583 265.154C492.583 271.45 497.957 276.554 504.585 276.554Z" fill="#EFAF00" stroke="black" stroke-width="2" stroke-linecap="round" stroke-linejoin="round"/>
<path d="M510.586 259.454C511.37 260.182 511.996 261.064 512.424 262.045C512.852 263.026 513.073 264.084 513.073 265.154C513.073 266.224 512.852 267.282 512.424 268.263C511.996 269.244 511.37 270.126 510.586 270.854" stroke="#070707" stroke-width="2" stroke-linecap="round" stroke-linejoin="round"/>
<path d="M513.058 277.21L520.491 285.022C520.81 285.35 521.241 285.545 521.698 285.567C522.155 285.589 522.604 285.437 522.953 285.142C523.121 285 523.258 284.825 523.356 284.628C523.454 284.432 523.511 284.217 523.523 283.997C523.535 283.778 523.503 283.558 523.427 283.352C523.351 283.145 523.234 282.957 523.082 282.797L515.65 274.985C515.331 274.657 514.899 274.462 514.442 274.44C513.985 274.418 513.537 274.57 513.187 274.865C513.019 275.007 512.882 275.182 512.784 275.379C512.686 275.576 512.629 275.79 512.617 276.01C512.605 276.229 512.638 276.449 512.714 276.655C512.79 276.862 512.907 277.05 513.058 277.21Z" fill="#EFAF00" stroke="black" stroke-width="2" stroke-linecap="round" stroke-linejoin="round"/>
<path d="M474.148 258.498H451.624C450.439 258.498 449.479 259.458 449.479 260.642V283.152C449.479 284.337 450.439 285.297 451.624 285.297H474.148C475.333 285.297 476.293 284.337 476.293 283.152V260.642C476.293 259.458 475.333 258.498 474.148 258.498Z" fill="#C5DCDD" stroke="black" stroke-width="2" stroke-linecap="round" stroke-linejoin="round"/>
<path d="M467.914 258.498H447.401C446.216 258.498 445.255 259.458 445.255 260.642V283.152C445.255 284.337 446.216 285.297 447.401 285.297H467.914C469.099 285.297 470.06 284.337 470.06 283.152V260.642C470.06 259.458 469.099 258.498 467.914 258.498Z" fill="#C5DCDD" stroke="black" stroke-width="2" stroke-linecap="round" stroke-linejoin="round"/>
<path d="M458.061 286.75V256.812" stroke="#070707" stroke-width="2" stroke-linecap="round" stroke-linejoin="round"/>
<path d="M443.937 271.833H477.479" stroke="#070707" stroke-width="2" stroke-linecap="round" stroke-linejoin="round"/>
<path d="M462.081 249.898H464.053C465.118 249.898 466.14 250.32 466.893 251.073C467.646 251.826 468.069 252.847 468.069 253.911V254.479C468.069 255.544 467.646 256.565 466.893 257.317C466.14 258.07 465.118 258.493 464.053 258.493H458.065V253.908C458.065 252.843 458.488 251.823 459.241 251.07C459.994 250.317 461.016 249.894 462.081 249.894V249.898Z" stroke="#070707" stroke-width="2" stroke-linecap="round" stroke-linejoin="round"/>
<path d="M458.016 258.498H452.545C451.704 258.498 450.896 258.164 450.301 257.569C449.706 256.975 449.372 256.168 449.372 255.327V254.878C449.372 254.037 449.706 253.231 450.301 252.636C450.896 252.042 451.704 251.707 452.545 251.707H454.843C455.684 251.707 456.492 252.042 457.087 252.636C457.682 253.231 458.016 254.037 458.016 254.878V258.498V258.498Z" stroke="#070707" stroke-width="2" stroke-linecap="round" stroke-linejoin="round"/>
<path d="M463.064 263.984L458.013 258.498L454.927 261.585" stroke="#070707" stroke-width="2" stroke-linecap="round" stroke-linejoin="round"/>
<path d="M411.418 249.646H411.916C412.847 249.646 413.741 250.015 414.399 250.674C415.058 251.332 415.428 252.225 415.428 253.155V257.947H407.905V253.155C407.905 252.225 408.275 251.332 408.934 250.674C409.593 250.015 410.486 249.646 411.418 249.646V249.646Z" stroke="#070707" stroke-width="2" stroke-linecap="round" stroke-linejoin="round"/>
<path d="M408.762 249.646H409.259C410.191 249.646 411.084 250.015 411.743 250.674C412.402 251.332 412.772 252.225 412.772 253.155V257.947H405.249V253.155C405.249 252.225 405.619 251.332 406.278 250.674C406.937 250.015 407.83 249.646 408.762 249.646V249.646Z" stroke="#070707" stroke-width="2" stroke-linecap="round" stroke-linejoin="round"/>
<path d="M423.203 285.568H415.079L418.466 257.936H419.817L423.203 285.568Z" fill="#1C0E0C"/>
<path d="M418.466 257.936L415.079 285.568H395.787L399.171 257.936H418.466Z" fill="#EFAF00" stroke="black" stroke-width="2" stroke-linecap="round" stroke-linejoin="round"/>
<path d="M574.731 124.648H509.487C506.345 124.648 503.797 127.195 503.797 130.336V195.541C503.797 198.682 506.345 201.228 509.487 201.228H574.731C577.874 201.228 580.422 198.682 580.422 195.541V130.336C580.422 127.195 577.874 124.648 574.731 124.648Z" fill="#1C0E0C"/>
<path d="M571.545 121.425H506.301C503.158 121.425 500.61 123.972 500.61 127.113V192.318C500.61 195.459 503.158 198.005 506.301 198.005H571.545C574.688 198.005 577.236 195.459 577.236 192.318V127.113C577.236 123.972 574.688 121.425 571.545 121.425Z" fill="#F4F1ED" stroke="#070707" stroke-width="2" stroke-linecap="round" stroke-linejoin="round"/>
<path d="M552.492 189.663H530.686C528.625 189.664 526.59 189.201 524.733 188.307C522.876 187.413 521.246 186.111 519.963 184.499C518.679 182.887 517.777 181.006 517.323 178.997C516.869 176.987 516.875 174.902 517.34 172.895L521.735 157.354C521.887 156.697 522.258 156.111 522.786 155.691C523.314 155.272 523.968 155.043 524.643 155.042H558.516C559.19 155.042 559.845 155.271 560.374 155.691C560.902 156.111 561.272 156.697 561.424 157.354L565.822 172.895C566.286 174.9 566.291 176.984 565.837 178.992C565.383 180.999 564.482 182.879 563.201 184.49C561.92 186.101 560.292 187.403 558.438 188.299C556.584 189.195 554.551 189.661 552.492 189.663Z" fill="#EFAF00"/>
<path d="M549.858 187.296H528.052C525.992 187.296 523.957 186.831 522.101 185.936C520.245 185.041 518.615 183.739 517.333 182.127C516.05 180.515 515.148 178.634 514.694 176.625C514.24 174.616 514.245 172.531 514.709 170.524L519.107 154.987C519.259 154.329 519.629 153.742 520.157 153.322C520.685 152.901 521.34 152.672 522.016 152.671H555.892C556.567 152.672 557.222 152.902 557.75 153.322C558.278 153.743 558.648 154.329 558.8 154.987L563.195 170.524C563.66 172.531 563.665 174.616 563.212 176.624C562.758 178.633 561.857 180.513 560.575 182.126C559.293 183.738 557.664 185.04 555.808 185.935C553.953 186.83 551.919 187.295 549.858 187.296V187.296Z" stroke="#070707" stroke-width="2" stroke-linecap="round" stroke-linejoin="round"/>
<path d="M552.156 149.92C552.157 150.841 552.087 151.761 551.946 152.671H525.965C525.824 151.761 525.754 150.841 525.755 149.92C525.755 141.41 531.662 134.515 538.952 134.515C546.242 134.515 552.156 141.41 552.156 149.92Z" stroke="#070707" stroke-width="2" stroke-linecap="round" stroke-linejoin="round"/>
<path d="M558.073 153.614C557.627 163.755 549.057 171.845 538.952 171.845C529.119 171.845 520.284 163.771 519.838 153.618C520.116 153.319 520.454 153.081 520.828 152.918C521.203 152.755 521.607 152.671 522.016 152.671H555.888C556.297 152.672 556.702 152.755 557.078 152.918C557.454 153.08 557.792 153.317 558.073 153.614Z" stroke="#070707" stroke-width="2" stroke-linecap="round" stroke-linejoin="round"/>
<path d="M540.271 168.871H537.637V175.067H540.271V168.871Z" stroke="#070707" stroke-width="2" stroke-linecap="round" stroke-linejoin="round"/>
<path d="M562.051 130.83C566.729 130.83 570.521 127.04 570.521 122.365C570.521 117.69 566.729 113.9 562.051 113.9C557.373 113.9 553.581 117.69 553.581 122.365C553.581 127.04 557.373 130.83 562.051 130.83Z" fill="#C5DCDD" stroke="black" stroke-width="2" stroke-linecap="round" stroke-linejoin="round"/>
<path d="M558.932 122.119L561.712 126.042L565.173 118.687" stroke="#070707" stroke-width="2" stroke-linecap="round" stroke-linejoin="round"/>
<path d="M670.118 73.5793H505.296C502.708 73.5793 500.61 75.6759 500.61 78.2622V102.652C500.61 105.238 502.708 107.335 505.296 107.335H670.118C672.706 107.335 674.804 105.238 674.804 102.652V78.2622C674.804 75.6759 672.706 73.5793 670.118 73.5793Z" stroke="#070707" stroke-width="2" stroke-linecap="round" stroke-linejoin="round"/>
<path d="M551.804 101.618H527.836C527.836 101.618 521.279 91.0965 519.04 91.0965C517.747 91.0965 517.217 101.622 517.217 101.622H515.724C515.724 101.622 512.234 80.1256 516.102 78.8952C518.623 78.0942 525.448 80.2257 527.322 88.6646C528.905 95.7696 538.009 97.0453 539.02 92.356C539.02 92.3528 551.377 95.9925 551.804 101.618Z" fill="#F4F1ED" stroke="#070707" stroke-width="2" stroke-linecap="round" stroke-linejoin="round"/>
<path d="M613.289 96.4575C613.247 96.9581 612.346 99.3416 612.346 99.3416L566.271 97.7817V95.198C566.323 91.8609 567.086 88.5732 568.511 85.5545C569.71 83.0581 571.367 83.6814 571.367 83.6814C571.367 83.6814 575.872 88.0833 580.926 88.0833C581.367 88.079 581.799 87.96 582.18 87.738C582.561 87.516 582.877 87.1987 583.098 86.8173C583.395 86.3518 583.627 85.8475 583.786 85.3188C583.999 84.63 584.147 83.9229 584.229 83.2066C584.267 82.9043 584.378 82.6158 584.552 82.3653C584.726 82.1149 584.957 81.9099 585.227 81.7677C585.496 81.6255 585.796 81.5502 586.101 81.5483C586.406 81.5464 586.707 81.6178 586.979 81.7566C588.963 82.7771 591.37 85.0572 597.82 88.5386C598.143 88.713 598.467 88.8939 598.822 89.0747C606.668 93.2054 613.205 91.6713 613.289 96.4575Z" fill="#F4F1ED" stroke="#070707" stroke-width="2" stroke-linecap="round" stroke-linejoin="round"/>
<path d="M608.109 101.617C609.444 101.617 611.069 101.013 611.945 100.038C612.488 99.402 612.878 98.6504 613.086 97.8407C613.293 97.031 613.313 96.1845 613.144 95.3659H613.108C612.923 96.3397 612.408 97.2204 611.652 97.8613C610.895 98.5023 609.941 98.8649 608.95 98.8887L569.005 97.7166C568.392 97.6974 567.8 97.4887 567.31 97.1192C566.82 96.7496 566.457 96.2375 566.271 95.6533V98.3333C566.271 100.148 567.59 101.617 569.212 101.617H608.109Z" fill="#EFAF00" stroke="black" stroke-width="2" stroke-linecap="round" stroke-linejoin="round"/>
<path d="M599.575 89.4801C589.596 86.0703 584.603 84.5269 583.786 85.3471C583.999 84.6584 584.147 83.9515 584.229 83.2354C584.267 82.9331 584.378 82.6446 584.552 82.3943C584.726 82.1439 584.957 81.9389 585.227 81.7967C585.496 81.6546 585.796 81.5793 586.101 81.5774C586.406 81.5754 586.707 81.6468 586.979 81.7856C588.963 82.7898 592.281 85.8185 599.575 89.4801Z" fill="#EFAF00" stroke="black" stroke-width="2" stroke-linecap="round" stroke-linejoin="round"/>
<path d="M588.685 84.979L590.494 82.2279C590.6 82.0671 590.737 81.9294 590.898 81.8232C591.059 81.717 591.239 81.6445 591.429 81.61C591.618 81.5756 591.813 81.58 592 81.6229C592.188 81.6659 592.365 81.7465 592.521 81.8598V81.8598C592.799 82.0634 592.993 82.361 593.068 82.6971C593.143 83.0333 593.093 83.3852 592.928 83.6874L592.685 84.1298" stroke="#070707" stroke-width="2" stroke-linecap="round" stroke-linejoin="round"/>
<path d="M593.338 86.4034L594.663 84.4241C594.759 84.2859 594.882 84.1685 595.024 84.0791C595.166 83.9897 595.325 83.9301 595.492 83.9038C595.658 83.8775 595.827 83.8852 595.991 83.9264C596.154 83.9675 596.307 84.0412 596.44 84.1431C596.682 84.3266 596.848 84.5919 596.908 84.8893C596.967 85.1866 596.916 85.4954 596.764 85.7576L596.285 86.623" stroke="#070707" stroke-width="2" stroke-linecap="round" stroke-linejoin="round"/>
<path d="M600.018 88.5124C600.548 87.7923 600.418 86.9657 599.888 86.575C599.746 86.4689 599.583 86.3928 599.41 86.3515C599.237 86.3102 599.057 86.3044 598.882 86.3346C598.707 86.3648 598.539 86.4303 598.39 86.5272C598.241 86.624 598.113 86.7501 598.014 86.8979L597.203 88.225" stroke="#070707" stroke-width="2" stroke-linecap="round" stroke-linejoin="round"/>
<path d="M659.539 80.82C663.54 80.82 666.784 77.5782 666.784 73.5793C666.784 69.5804 663.54 66.3386 659.539 66.3386C655.537 66.3386 652.294 69.5804 652.294 73.5793C652.294 77.5782 655.537 80.82 659.539 80.82Z" fill="#F46F40" stroke="black" stroke-width="2" stroke-linecap="round" stroke-linejoin="round"/>
<path d="M657.157 76.0489L661.92 71.1087" stroke="#070707" stroke-width="2" stroke-linecap="round" stroke-linejoin="round"/>
<path d="M661.92 76.0489L657.157 71.1087" stroke="#070707" stroke-width="2" stroke-linecap="round" stroke-linejoin="round"/>
<path d="M627.153 90.0727C627.153 90.0727 621.982 101.618 629.492 101.618H664.353C664.353 101.618 665.756 95.9634 656.701 94.5133C655.441 94.3099 651.854 93.622 651.854 93.622C651.854 93.622 652.972 98.1434 645.003 97.7849C637.034 97.4264 633.431 90.6411 627.153 90.0727Z" fill="#F4F1ED" stroke="#070707" stroke-width="2" stroke-linecap="round" stroke-linejoin="round"/>
<path d="M489.194 78.7369H378.014C374.871 78.7369 372.323 81.2832 372.323 84.4242V195.537C372.323 198.678 374.871 201.225 378.014 201.225H489.194C492.336 201.225 494.884 198.678 494.884 195.537V84.4242C494.884 81.2832 492.336 78.7369 489.194 78.7369Z" fill="#1C0E0C"/>
<path d="M484.097 73.5793H372.918C369.775 73.5793 367.227 76.1256 367.227 79.2665V190.38C367.227 193.521 369.775 196.067 372.918 196.067H484.097C487.24 196.067 489.788 193.521 489.788 190.38V79.2665C489.788 76.1256 487.24 73.5793 484.097 73.5793Z" fill="#EFAF00" stroke="black" stroke-width="2" stroke-linecap="round" stroke-linejoin="round"/>
<path d="M474.099 123.069L457.829 136.843V173.748H403.656V136.856L387.389 123.069L399.872 107.567C403.656 104.276 409.418 103.76 413.602 103.76H449.414C457.816 103.76 459.945 105.339 462.127 107.057L474.099 123.069Z" fill="#1C0E0C"/>
<path d="M472.745 120.566L456.181 134.586V172.159H401.006V134.586L384.445 120.566L397.151 104.741C401.006 101.389 406.874 100.866 411.134 100.866H447.595C456.148 100.866 458.313 102.481 460.521 104.221L472.745 120.566Z" fill="#F4F1ED" stroke="#070707" stroke-width="2" stroke-linecap="round" stroke-linejoin="round"/>
<path d="M401.013 134.586V121.299" stroke="#070707" stroke-width="2" stroke-linecap="round" stroke-linejoin="round"/>
<path d="M456.155 134.712V121.425" stroke="#070707" stroke-width="2" stroke-linecap="round" stroke-linejoin="round"/>
<path d="M428.59 113.112V172.149" stroke="#070707" stroke-width="2" stroke-linecap="round" stroke-linejoin="round"/>
<path d="M445.72 100.879H433.302C433.185 100.878 433.071 100.914 432.976 100.981C432.881 101.048 432.81 101.143 432.772 101.253L428.59 113.112L424.189 101.35C424.137 101.212 424.044 101.092 423.922 101.008C423.8 100.924 423.655 100.879 423.507 100.879H411.266L417.215 95.8181C418.546 94.6845 420.237 94.0617 421.985 94.0612H435.001C436.751 94.0615 438.443 94.6843 439.774 95.8181L445.72 100.879Z" fill="#F4F1ED" stroke="#070707" stroke-width="2" stroke-linecap="round" stroke-linejoin="round"/>
<path d="M419.775 95.8536L424.011 100.879L419.164 107.793L411.26 100.879L417.451 95.6566C417.616 95.5166 417.808 95.4105 418.014 95.3446C418.221 95.2787 418.438 95.2542 418.654 95.2725C418.87 95.2908 419.08 95.3516 419.272 95.4513C419.465 95.551 419.635 95.6877 419.775 95.8536Z" fill="#F4F1ED" stroke="#070707" stroke-width="2" stroke-linecap="round" stroke-linejoin="round"/>
<path d="M437.215 95.8536L432.975 100.879L437.822 107.793L445.727 100.879L439.535 95.6566C439.37 95.5171 439.179 95.4115 438.973 95.3459C438.767 95.2802 438.55 95.2559 438.334 95.2742C438.119 95.2925 437.909 95.3531 437.717 95.4525C437.525 95.5519 437.354 95.6882 437.215 95.8536Z" fill="#F4F1ED" stroke="#070707" stroke-width="2" stroke-linecap="round" stroke-linejoin="round"/>
<path d="M436.876 122.365H447.863V132.78C447.863 133.323 447.647 133.843 447.264 134.226C446.88 134.609 446.36 134.825 445.817 134.825H438.921C438.379 134.825 437.858 134.609 437.475 134.226C437.091 133.843 436.876 133.323 436.876 132.78V122.365Z" fill="#F4F1ED" stroke="#070707" stroke-width="2" stroke-linecap="round" stroke-linejoin="round"/>
<path d="M425.216 118.777C425.954 118.777 426.551 118.18 426.551 117.443C426.551 116.707 425.954 116.109 425.216 116.109C424.479 116.109 423.882 116.707 423.882 117.443C423.882 118.18 424.479 118.777 425.216 118.777Z" fill="#1C0E0C"/>
<path d="M425.216 128.985C425.954 128.985 426.551 128.388 426.551 127.652C426.551 126.915 425.954 126.318 425.216 126.318C424.479 126.318 423.882 126.915 423.882 127.652C423.882 128.388 424.479 128.985 425.216 128.985Z" fill="#1C0E0C"/>
<path d="M425.216 139.194C425.954 139.194 426.551 138.597 426.551 137.86C426.551 137.124 425.954 136.527 425.216 136.527C424.479 136.527 423.882 137.124 423.882 137.86C423.882 138.597 424.479 139.194 425.216 139.194Z" fill="#1C0E0C"/>
<path d="M425.216 149.403C425.954 149.403 426.551 148.805 426.551 148.069C426.551 147.333 425.954 146.735 425.216 146.735C424.479 146.735 423.882 147.333 423.882 148.069C423.882 148.805 424.479 149.403 425.216 149.403Z" fill="#1C0E0C"/>
<path d="M425.216 159.611C425.954 159.611 426.551 159.014 426.551 158.278C426.551 157.541 425.954 156.944 425.216 156.944C424.479 156.944 423.882 157.541 423.882 158.278C423.882 159.014 424.479 159.611 425.216 159.611Z" fill="#1C0E0C"/>
<path d="M467.581 89.3783C474.916 89.3783 480.863 83.4356 480.863 76.1048C480.863 68.774 474.916 62.8313 467.581 62.8313C460.246 62.8313 454.3 68.774 454.3 76.1048C454.3 83.4356 460.246 89.3783 467.581 89.3783Z" fill="#F4F1ED" stroke="#070707" stroke-width="2" stroke-linecap="round" stroke-linejoin="round"/>
<path d="M464.159 70.1689C462.456 70.1689 461.309 71.4863 461.309 73.443C461.309 75.5256 462.356 76.772 464.107 76.772C465.859 76.772 466.932 75.4804 466.932 73.3752C466.929 71.3958 465.872 70.1689 464.159 70.1689ZM464.137 75.5321C462.967 75.5321 462.792 74.2115 462.792 73.4236C462.792 72.132 463.27 71.4087 464.137 71.4087C465.238 71.4087 465.468 72.4872 465.468 73.3945C465.468 74.8153 465.019 75.5321 464.137 75.5321Z" fill="#1C0E0C"/>
<path d="M471.411 74.8743C469.737 74.8743 468.564 76.2208 468.564 78.1452C468.564 80.1988 469.637 81.4742 471.362 81.4742C473.088 81.4742 474.186 80.1827 474.186 78.0774C474.186 76.1013 473.123 74.8743 471.411 74.8743ZM471.391 80.2343C470.221 80.2343 470.047 78.9169 470.047 78.1291C470.047 76.8375 470.535 76.111 471.391 76.111C472.49 76.111 472.719 77.1927 472.719 78.0968C472.719 79.4691 472.235 80.2343 471.391 80.2343Z" fill="#1C0E0C"/>
<path d="M472.206 70.3174L464.786 81.3561H463.306L470.719 70.3174H472.206Z" fill="#1C0E0C"/>
<path d="M670.6 124.648H605.356C602.213 124.648 599.666 127.195 599.666 130.336V195.541C599.666 198.682 602.213 201.228 605.356 201.228H670.6C673.743 201.228 676.291 198.682 676.291 195.541V130.336C676.291 127.195 673.743 124.648 670.6 124.648Z" fill="#1C0E0C"/>
<path d="M667.414 121.425H602.17C599.027 121.425 596.479 123.972 596.479 127.113V192.318C596.479 195.459 599.027 198.005 602.17 198.005H667.414C670.557 198.005 673.104 195.459 673.104 192.318V127.113C673.104 123.972 670.557 121.425 667.414 121.425Z" fill="#C5DCDD" stroke="black" stroke-width="2" stroke-linecap="round" stroke-linejoin="round"/>
<path d="M655.819 150.873H620.88C619.695 150.873 618.735 151.833 618.735 153.017V183.398C618.735 184.582 619.695 185.542 620.88 185.542H655.819C657.004 185.542 657.965 184.582 657.965 183.398V153.017C657.965 151.833 657.004 150.873 655.819 150.873Z" fill="white"/>
<path d="M658.007 151.664V181.941C658.007 182.414 657.914 182.882 657.734 183.318C657.553 183.755 657.288 184.152 656.953 184.486C656.619 184.82 656.222 185.085 655.785 185.266C655.348 185.446 654.88 185.539 654.407 185.539H645.682C646.637 185.539 647.552 185.16 648.227 184.485C648.903 183.81 649.282 182.895 649.282 181.941V151.664C649.282 151.191 649.189 150.723 649.009 150.286C648.828 149.848 648.563 149.451 648.229 149.117C647.894 148.782 647.498 148.516 647.061 148.335C646.624 148.154 646.155 148.06 645.682 148.06H654.407C654.88 148.06 655.349 148.154 655.786 148.335C656.223 148.516 656.619 148.782 656.954 149.117C657.288 149.451 657.553 149.848 657.734 150.286C657.914 150.723 658.007 151.191 658.007 151.664Z" stroke="#070707" stroke-width="2" stroke-linecap="round" stroke-linejoin="round"/>
<path d="M649.292 151.664V181.941C649.292 182.895 648.912 183.81 648.237 184.485C647.562 185.16 646.646 185.539 645.692 185.539H618.224C617.75 185.541 617.28 185.449 616.841 185.269C616.403 185.09 616.004 184.825 615.668 184.491C615.332 184.156 615.065 183.759 614.883 183.322C614.702 182.884 614.608 182.415 614.608 181.941V151.664C614.608 150.708 614.987 149.792 615.663 149.116C616.339 148.441 617.255 148.06 618.211 148.06H645.679C646.153 148.058 646.623 148.151 647.061 148.331C647.5 148.512 647.898 148.777 648.234 149.112C648.57 149.447 648.836 149.845 649.017 150.283C649.199 150.72 649.292 151.19 649.292 151.664Z" stroke="#070707" stroke-width="2" stroke-linecap="round" stroke-linejoin="round"/>
<path d="M632.51 187.221V145.353" stroke="#070707" stroke-width="2" stroke-linecap="round" stroke-linejoin="round"/>
<path d="M613.109 166.71H659.316" stroke="#070707" stroke-width="2" stroke-linecap="round" stroke-linejoin="round"/>
<path d="M638.127 136.036H640.883C642.374 136.036 643.803 136.628 644.857 137.681C645.911 138.734 646.503 140.163 646.503 141.652V142.447C646.503 143.936 645.911 145.365 644.857 146.418C643.803 147.471 642.374 148.063 640.883 148.063H632.51V141.649C632.511 140.16 633.103 138.733 634.156 137.681C635.209 136.628 636.637 136.037 638.127 136.036V136.036Z" stroke="#070707" stroke-width="2" stroke-linecap="round" stroke-linejoin="round"/>
<path d="M632.446 148.056H624.797C623.62 148.056 622.492 147.589 621.66 146.758C620.828 145.926 620.36 144.799 620.36 143.623V142.993C620.36 141.818 620.828 140.69 621.66 139.859C622.492 139.027 623.62 138.56 624.797 138.56H628.009C629.186 138.56 630.314 139.027 631.146 139.859C631.978 140.69 632.446 141.818 632.446 142.993V148.056V148.056Z" stroke="#070707" stroke-width="2" stroke-linecap="round" stroke-linejoin="round"/>
<path d="M639.507 155.735L632.446 148.063L628.125 152.38" stroke="#070707" stroke-width="2" stroke-linecap="round" stroke-linejoin="round"/>
<path d="M79.2465 137.111C86.1336 137.111 91.7168 131.532 91.7168 124.648C91.7168 117.765 86.1336 112.186 79.2465 112.186C72.3593 112.186 66.7761 117.765 66.7761 124.648C66.7761 131.532 72.3593 137.111 79.2465 137.111Z" stroke="#070707" stroke-width="2" stroke-linecap="round" stroke-linejoin="round"/>
<path d="M110.304 75.0568C112.487 75.0568 114.256 73.2888 114.256 71.1079C114.256 68.9269 112.487 67.1589 110.304 67.1589C108.122 67.1589 106.352 68.9269 106.352 71.1079C106.352 73.2888 108.122 75.0568 110.304 75.0568Z" stroke="#070707" stroke-width="2" stroke-linecap="round" stroke-linejoin="round"/>
<path d="M538.093 404.726H539.611C542.448 404.726 545.169 405.852 547.175 407.857C549.181 409.862 550.308 412.581 550.308 415.416V425.751H527.4V415.416C527.4 412.582 528.526 409.863 530.531 407.858C532.537 405.854 535.256 404.727 538.093 404.726V404.726Z" stroke="#070707" stroke-width="2" stroke-linecap="round" stroke-linejoin="round"/>
<path d="M545.819 404.726H547.338C550.175 404.726 552.895 405.853 554.901 407.857C556.907 409.862 558.034 412.581 558.034 415.416V425.751H535.113V415.416C535.113 414.011 535.39 412.621 535.928 411.323C536.466 410.025 537.255 408.847 538.249 407.854C539.244 406.861 540.424 406.074 541.723 405.537C543.022 405.001 544.414 404.725 545.819 404.726Z" stroke="#070707" stroke-width="2" stroke-linecap="round" stroke-linejoin="round"/>
<path d="M592.459 536.189H561.776L574.783 425.731H579.452L592.459 536.189Z" fill="#1C0E0C"/>
<path d="M574.783 425.731L561.776 536.189H490.473L503.483 425.731H574.783Z" stroke="#070707" stroke-width="2" stroke-linecap="round" stroke-linejoin="round"/>
<path d="M565.683 459.454H555.239L556.57 444.253C556.715 442.84 557.373 441.529 558.419 440.568C559.465 439.606 560.827 439.06 562.248 439.034C562.917 439.022 563.581 439.152 564.195 439.416C564.81 439.681 565.361 440.073 565.812 440.566C566.263 441.06 566.603 441.644 566.811 442.28C567.018 442.916 567.088 443.588 567.014 444.253L565.683 459.454Z" fill="white"/>
<path d="M564.765 458.537H554.321L555.653 443.336C555.797 441.922 556.454 440.61 557.5 439.648C558.546 438.686 559.909 438.14 561.33 438.113V438.113C561.999 438.102 562.663 438.232 563.278 438.497C563.892 438.762 564.443 439.154 564.894 439.648C565.345 440.142 565.686 440.727 565.893 441.362C566.1 441.998 566.17 442.671 566.097 443.336L564.765 458.537Z" stroke="#070707" stroke-width="2" stroke-linecap="round" stroke-linejoin="round"/>
<path d="M561.706 443.109C562.175 442.66 562.221 441.947 561.809 441.517C561.397 441.087 560.683 441.102 560.214 441.551C559.745 442 559.699 442.712 560.111 443.142C560.523 443.573 561.237 443.558 561.706 443.109Z" stroke="#070707" stroke-width="2" stroke-linecap="round" stroke-linejoin="round"/>
<path d="M560.997 442.202L562.484 424.947C562.534 424.37 562.798 423.834 563.225 423.443C563.652 423.052 564.209 422.835 564.788 422.834V422.834C565.402 422.834 565.99 423.078 566.424 423.512C566.858 423.945 567.102 424.534 567.102 425.147" stroke="#070707" stroke-width="2" stroke-linecap="round" stroke-linejoin="round"/>
<path d="M560.319 453.043C560.585 453.001 560.832 452.878 561.027 452.691C561.194 452.528 561.298 452.31 561.317 452.077C561.334 451.972 561.327 451.865 561.296 451.764C561.264 451.662 561.21 451.57 561.136 451.493C560.949 451.331 560.728 451.212 560.49 451.144L559.954 450.986C559.629 450.898 559.314 450.778 559.013 450.627C558.769 450.499 558.566 450.304 558.428 450.066C558.28 449.777 558.225 449.45 558.27 449.129C558.298 448.661 558.507 448.223 558.852 447.905C559.25 447.567 559.751 447.372 560.274 447.353H560.823C561.091 447.373 561.354 447.438 561.602 447.544C561.817 447.639 562.004 447.788 562.145 447.976C562.255 448.114 562.343 448.268 562.406 448.432C562.458 448.569 562.482 448.715 562.474 448.861C562.458 449.006 562.389 449.14 562.281 449.238C562.173 449.336 562.032 449.392 561.886 449.394C561.822 449.397 561.759 449.388 561.699 449.367C561.638 449.346 561.583 449.313 561.536 449.271C561.488 449.228 561.45 449.176 561.422 449.119C561.395 449.061 561.379 448.999 561.376 448.935C561.352 448.768 561.28 448.61 561.169 448.483C561.058 448.355 560.912 448.262 560.749 448.215L560.199 448.196C559.984 448.252 559.782 448.35 559.605 448.483C559.528 448.551 559.467 448.633 559.423 448.725C559.38 448.818 559.356 448.918 559.353 449.019C559.337 449.111 559.341 449.206 559.366 449.296C559.392 449.386 559.437 449.469 559.498 449.539C559.66 449.682 559.849 449.792 560.054 449.862L560.59 450.02C560.939 450.12 561.217 450.208 561.424 450.288C561.626 450.368 561.809 450.488 561.964 450.64C562.128 450.799 562.252 450.995 562.326 451.212C562.405 451.445 562.434 451.693 562.41 451.938C562.378 452.268 562.267 452.585 562.086 452.862C561.9 453.155 561.644 453.397 561.34 453.566C561.003 453.754 560.627 453.864 560.241 453.889H559.689C559.389 453.859 559.096 453.778 558.823 453.65C558.597 453.539 558.395 453.385 558.228 453.198C558.084 453.032 557.975 452.84 557.905 452.633C557.842 452.448 557.818 452.252 557.834 452.058C557.847 451.912 557.916 451.778 558.028 451.683C558.141 451.575 558.291 451.515 558.448 451.515C558.563 451.511 558.676 451.544 558.771 451.609C558.856 451.669 558.914 451.761 558.933 451.864C558.975 452.048 559.028 452.229 559.091 452.407C559.14 452.539 559.22 452.657 559.324 452.752C559.45 452.867 559.604 452.949 559.77 452.991L560.319 453.043Z" fill="#070707"/>
<path d="M559.905 454.541H559.882C559.852 454.538 559.823 454.53 559.796 454.516C559.77 454.502 559.746 454.483 559.727 454.46C559.708 454.437 559.693 454.41 559.684 454.381C559.676 454.352 559.673 454.322 559.676 454.292L560.322 446.782C560.327 446.721 560.357 446.666 560.403 446.627C560.45 446.588 560.51 446.57 560.57 446.575C560.631 446.581 560.687 446.61 560.726 446.656C560.765 446.703 560.785 446.763 560.78 446.824L560.134 454.331C560.13 454.388 560.103 454.442 560.061 454.481C560.018 454.519 559.963 454.541 559.905 454.541Z" fill="#070707"/>
<path d="M512.208 440.985H513.31C515.367 440.985 517.34 441.801 518.794 443.255C520.249 444.708 521.066 446.68 521.066 448.736V456.222H504.446V448.739C504.446 447.72 504.646 446.711 505.036 445.77C505.426 444.829 505.998 443.974 506.719 443.254C507.44 442.533 508.296 441.962 509.238 441.573C510.18 441.184 511.189 440.984 512.208 440.985V440.985Z" stroke="#070707" stroke-width="2" stroke-linecap="round" stroke-linejoin="round"/>
<path d="M517.815 440.985H518.917C520.974 440.985 522.946 441.801 524.401 443.255C525.855 444.708 526.673 446.68 526.673 448.736V456.222H510.05V448.739C510.05 446.683 510.867 444.712 512.321 443.258C513.776 441.804 515.748 440.988 517.805 440.988L517.815 440.985Z" stroke="#070707" stroke-width="2" stroke-linecap="round" stroke-linejoin="round"/>
<path d="M551.655 536.373H529.393L538.833 456.228H542.219L551.655 536.373Z" fill="#F4F1ED" stroke="#070707" stroke-width="2" stroke-linecap="round" stroke-linejoin="round"/>
<path d="M538.833 456.228L529.393 536.373H477.657L487.096 456.228H538.833Z" fill="#F4F1ED" stroke="#070707" stroke-width="2" stroke-linecap="round" stroke-linejoin="round"/>
<path d="M187.792 276.761H96.2629C92.2813 276.761 89.0535 279.987 89.0535 283.966V386.902C89.0535 390.882 92.2813 394.107 96.2629 394.107H187.792C191.773 394.107 195.001 390.882 195.001 386.902V283.966C195.001 279.987 191.773 276.761 187.792 276.761Z" fill="#C5DCDD" stroke="black" stroke-width="2" stroke-linecap="round" stroke-linejoin="round"/>
<path d="M178.155 287.861C176.999 286.706 175.526 285.919 173.922 285.601C172.318 285.282 170.656 285.446 169.146 286.071C167.635 286.696 166.344 287.755 165.435 289.114C164.526 290.472 164.041 292.069 164.04 293.703V317.773H180.576V293.703C180.577 292.618 180.364 291.544 179.949 290.541C179.533 289.538 178.924 288.628 178.155 287.861V287.861ZM172.31 293.949C171.957 293.949 171.612 293.844 171.319 293.648C171.025 293.452 170.797 293.174 170.662 292.848C170.527 292.523 170.491 292.164 170.56 291.818C170.629 291.472 170.799 291.155 171.048 290.906C171.298 290.656 171.616 290.486 171.962 290.418C172.308 290.349 172.666 290.384 172.992 290.519C173.318 290.654 173.597 290.882 173.793 291.176C173.989 291.469 174.093 291.814 174.093 292.166C174.093 292.637 173.906 293.088 173.573 293.422C173.241 293.756 172.791 293.945 172.319 293.949H172.31Z" stroke="#070707" stroke-width="2" stroke-linecap="round" stroke-linejoin="round"/>
<path d="M177.044 286.324C175.888 285.167 174.415 284.379 172.81 284.06C171.206 283.74 169.543 283.903 168.032 284.529C166.521 285.154 165.229 286.214 164.321 287.573C163.412 288.933 162.928 290.531 162.929 292.166V316.236H179.467V292.166C179.469 291.081 179.256 290.006 178.84 289.003C178.424 288 177.813 287.09 177.044 286.324ZM171.198 292.412C170.844 292.412 170.499 292.308 170.204 292.112C169.91 291.916 169.68 291.638 169.545 291.311C169.409 290.985 169.373 290.626 169.442 290.279C169.51 289.933 169.68 289.614 169.93 289.364C170.18 289.114 170.498 288.943 170.845 288.874C171.192 288.805 171.551 288.84 171.878 288.975C172.205 289.11 172.484 289.339 172.68 289.633C172.877 289.927 172.982 290.272 172.982 290.626C172.982 291.099 172.794 291.552 172.46 291.887C172.125 292.222 171.671 292.411 171.198 292.412Z" fill="#F4F1ED" stroke="#070707" stroke-width="2" stroke-linecap="round" stroke-linejoin="round"/>
<path d="M171.198 289.954V275.598C171.198 274.503 171.633 273.452 172.409 272.677C173.184 271.903 174.235 271.467 175.331 271.467C175.874 271.467 176.412 271.574 176.914 271.781C177.416 271.988 177.872 272.293 178.256 272.676C178.64 273.06 178.945 273.515 179.152 274.017C179.36 274.518 179.467 275.055 179.467 275.598V276.011" stroke="#070707" stroke-width="2" stroke-linecap="round" stroke-linejoin="round"/>
<path d="M174.559 304.632C174.413 304.287 174.192 303.978 173.912 303.728C173.65 303.488 173.344 303.299 173.011 303.172C172.675 303.045 172.222 302.903 171.654 302.746H171.615V299.901H171.654C171.921 299.976 172.163 300.121 172.355 300.322C172.547 300.522 172.682 300.771 172.746 301.041C172.777 301.248 172.883 301.436 173.043 301.57C173.204 301.704 173.409 301.775 173.618 301.768C173.731 301.769 173.843 301.748 173.948 301.706C174.052 301.663 174.147 301.599 174.226 301.519C174.306 301.442 174.37 301.35 174.414 301.248C174.457 301.146 174.479 301.036 174.478 300.925C174.47 300.688 174.412 300.456 174.31 300.243C174.186 299.981 174.025 299.739 173.832 299.523C173.583 299.227 173.268 298.993 172.914 298.838C172.512 298.674 172.087 298.572 171.654 298.535H171.615V297.666C171.615 297.555 171.571 297.448 171.492 297.369C171.413 297.29 171.306 297.246 171.195 297.246C171.083 297.246 170.976 297.29 170.898 297.369C170.819 297.448 170.775 297.555 170.775 297.666V298.538C169.971 298.56 169.202 298.871 168.61 299.413C168.197 299.873 167.939 300.45 167.873 301.064C167.807 301.678 167.936 302.297 168.241 302.833C168.49 303.213 168.836 303.52 169.243 303.722C169.734 303.958 170.247 304.147 170.775 304.287V307.477C170.506 307.408 170.257 307.28 170.044 307.103C169.869 306.951 169.727 306.766 169.627 306.557C169.537 306.357 169.43 306.069 169.304 305.695C169.257 305.53 169.153 305.387 169.01 305.291C168.855 305.19 168.672 305.14 168.487 305.146C168.366 305.142 168.247 305.163 168.135 305.209C168.024 305.254 167.923 305.323 167.84 305.411C167.76 305.487 167.695 305.579 167.651 305.682C167.607 305.784 167.583 305.894 167.582 306.005C167.586 306.317 167.65 306.625 167.773 306.912C167.916 307.244 168.117 307.547 168.367 307.807C168.655 308.104 168.994 308.347 169.369 308.524C169.812 308.723 170.285 308.85 170.768 308.899V309.544C170.768 309.656 170.812 309.763 170.891 309.841C170.97 309.92 171.077 309.964 171.188 309.964C171.3 309.964 171.407 309.92 171.485 309.841C171.564 309.763 171.608 309.656 171.608 309.544V308.873H171.647C172.245 308.835 172.825 308.659 173.344 308.359C173.799 308.092 174.174 307.706 174.426 307.242C174.669 306.793 174.795 306.289 174.791 305.779C174.794 305.385 174.715 304.994 174.559 304.632ZM169.85 301.987C169.653 301.753 169.546 301.455 169.55 301.148C169.555 300.842 169.669 300.547 169.873 300.318C170.135 300.106 170.439 299.952 170.765 299.865V302.491C170.43 302.385 170.119 302.214 169.85 301.987ZM172.717 306.98C172.43 307.278 172.053 307.475 171.644 307.539H171.605V304.522H171.644C172.038 304.632 172.407 304.82 172.726 305.075C172.852 305.192 172.95 305.336 173.013 305.496C173.077 305.655 173.105 305.827 173.095 305.998C173.101 306.362 172.966 306.715 172.717 306.98Z" fill="#070707"/>
<path d="M79.2071 316.323H64.9433C64.9433 316.323 51.2418 304.196 45.2538 297.043C44.4361 296.058 43.6879 295.018 43.0144 293.929C42.3844 292.906 42.038 291.733 42.0106 290.531C41.9831 289.33 42.2757 288.143 42.8582 287.091C43.4408 286.04 44.2925 285.162 45.3261 284.548C46.3597 283.933 47.538 283.604 48.7406 283.595H48.8957C63.3728 283.579 79.2168 309.803 79.2071 316.323Z" fill="#1C0E0C"/>
<path d="M87.0758 316.323H77.0388C77.0388 316.323 67.3992 307.791 63.1853 302.759C62.6104 302.067 62.0846 301.335 61.6116 300.569C61.1663 299.849 60.9208 299.024 60.9005 298.177C60.8803 297.331 61.0858 296.495 61.4962 295.754C61.9065 295.013 62.5068 294.395 63.2353 293.964C63.9638 293.532 64.7942 293.301 65.6413 293.296H65.7479C75.9336 293.296 87.079 311.737 87.0758 316.323Z" fill="#F4F1ED"/>
<path d="M57.2394 269.898C81.2494 269.646 89.5996 303.935 89.0793 316.323H79.2071C79.2071 309.803 63.3728 283.592 48.8957 283.592C43.7609 283.592 40.7329 288.165 42.2808 292.311C42.2808 292.299 32.3311 270.16 57.2394 269.898Z" fill="#EFAF00" stroke="black" stroke-width="2" stroke-linecap="round" stroke-linejoin="round"/>
<path d="M130.652 311.46C132.346 307.41 130.068 302.74 125.85 301.47C106.297 295.577 86.3034 316.327 86.3034 316.327H81.4109C81.4109 316.327 91.6709 286.101 121.914 290.593C128.536 291.575 137.229 297.947 130.652 311.46Z" fill="#EFAF00" stroke="black" stroke-width="2" stroke-linecap="round" stroke-linejoin="round"/>
<path d="M130.652 311.527C129.744 313.652 128.633 315.639 127.841 316.323H116.725C116.725 316.323 119.384 315.422 121.957 311.527C125.081 306.796 123.634 300.944 119.355 300.547C121.561 300.569 123.755 300.881 125.88 301.477C130.106 302.749 132.385 307.478 130.652 311.527Z" fill="#1C0E0C"/>
<path d="M134.931 315.303H62.2805C53.4695 315.303 46.3267 322.441 46.3267 331.247V416.372C46.3267 425.178 53.4695 432.316 62.2805 432.316H134.931C143.742 432.316 150.885 425.178 150.885 416.372V331.247C150.885 322.441 143.742 315.303 134.931 315.303Z" fill="#1C0E0C"/>
<path d="M115.387 315.303H45.7741C36.963 315.303 29.8202 322.441 29.8202 331.247V416.372C29.8202 425.178 36.963 432.316 45.7741 432.316H115.387C124.198 432.316 131.341 425.178 131.341 416.372V331.247C131.341 322.441 124.198 315.303 115.387 315.303Z" fill="#F4F1ED" stroke="#070707" stroke-width="2" stroke-linecap="round" stroke-linejoin="round"/>
<path d="M268.411 293.846H247.694C242.636 293.843 237.711 295.46 233.64 298.46C229.569 301.46 226.567 305.684 225.073 310.513L191.789 418.126C189.731 424.778 185.596 430.596 179.989 434.729C174.382 438.862 167.598 441.091 160.631 441.091H45.4186C40.8234 441.091 36.3606 442.63 32.7434 445.462C29.1262 448.294 26.5633 452.257 25.4641 456.716L21.2632 479.032C20.6592 481.481 20.6207 484.035 21.1506 486.502C21.6805 488.968 22.7649 491.281 24.3217 493.266C25.8785 495.252 27.867 496.857 30.1364 497.961C32.4058 499.064 34.8968 499.638 37.4207 499.637H177.884" stroke="#070707" stroke-width="2" stroke-linecap="round" stroke-linejoin="round"/>
<path d="M160.734 441.091H53.8689C46.9037 441.089 40.122 438.859 34.5169 434.726C28.9119 430.594 24.778 424.776 22.7206 418.126L1.36365 332.064H218.423L191.925 418.09C189.871 424.754 185.733 430.583 180.119 434.723C174.505 438.863 167.711 441.095 160.734 441.091Z" stroke="#070707" stroke-width="2" stroke-linecap="round" stroke-linejoin="round"/>
<path d="M89.703 441.091L55.9727 332.064" stroke="#070707" stroke-width="2" stroke-linecap="round" stroke-linejoin="round"/>
<path d="M118.182 441.091L151.912 332.064" stroke="#070707" stroke-width="2" stroke-linecap="round" stroke-linejoin="round"/>
<path d="M202.647 383.027H14.4868" stroke="#070707" stroke-width="2" stroke-linecap="round" stroke-linejoin="round"/>
<path d="M162.088 542.797C171.189 542.797 178.566 535.424 178.566 526.329C178.566 517.234 171.189 509.862 162.088 509.862C152.988 509.862 145.611 517.234 145.611 526.329C145.611 535.424 152.988 542.797 162.088 542.797Z" fill="#C5DCDD"/>
<path d="M50.2174 542.797C59.3176 542.797 66.6947 535.424 66.6947 526.329C66.6947 517.234 59.3176 509.862 50.2174 509.862C41.1172 509.862 33.74 517.234 33.74 526.329C33.74 535.424 41.1172 542.797 50.2174 542.797Z" fill="#C5DCDD"/>
<path d="M158.666 539.9C167.766 539.9 175.144 532.527 175.144 523.432C175.144 514.337 167.766 506.965 158.666 506.965C149.566 506.965 142.189 514.337 142.189 523.432C142.189 532.527 149.566 539.9 158.666 539.9Z" stroke="#070707" stroke-width="2" stroke-linecap="round" stroke-linejoin="round"/>
<path d="M46.792 539.9C55.8922 539.9 63.2693 532.527 63.2693 523.432C63.2693 514.337 55.8922 506.965 46.792 506.965C37.6918 506.965 30.3146 514.337 30.3146 523.432C30.3146 532.527 37.6918 539.9 46.792 539.9Z" stroke="#070707" stroke-width="2" stroke-linecap="round" stroke-linejoin="round"/>
<path d="M175.38 399.246H158.779C156.193 399.246 154.097 401.341 154.097 403.925V427.634C154.097 430.218 156.193 432.313 158.779 432.313H175.38C177.966 432.313 180.062 430.218 180.062 427.634V403.925C180.062 401.341 177.966 399.246 175.38 399.246Z" fill="#F46F40" stroke="black" stroke-width="2" stroke-linecap="round" stroke-linejoin="round"/>
<path d="M706.702 243.574H653.57V255.281H706.702V243.574Z" fill="#1C0E0C"/>
<path d="M699.716 527.205C701.535 531.95 703.047 539.006 696.675 539.006H662.217C662.217 539.006 662.117 533.758 670.164 533.057C683.784 531.872 688.069 521.082 688.26 515.976C688.651 488.467 677.919 404.527 676.132 388.292C687.746 387.934 699.307 386.558 710.68 384.181C704.841 403.942 717.411 420.155 718.39 440.023C719.36 459.836 703.561 503.755 698.985 518.779C698.607 521.46 698.898 525.064 699.716 527.205Z" fill="#FCBE9F" stroke="#070707" stroke-width="2" stroke-linecap="round" stroke-linejoin="round"/>
<path d="M699.716 527.205C699.716 527.205 704.986 539.006 697.324 539.006H661.691C661.691 539.006 660.259 534.543 669.511 533.057C670.804 532.854 674.481 532.147 674.481 532.147C674.481 532.147 673.337 535.447 681.484 535.089C689.63 534.73 693.298 527.796 699.716 527.205Z" fill="#F46F40" stroke="black" stroke-width="2" stroke-linecap="round" stroke-linejoin="round"/>
<path d="M709.685 388.385C698.942 391.39 687.932 393.35 676.811 394.235L676.123 388.291C687.736 387.933 699.295 386.558 710.667 384.181L709.685 388.385Z" fill="#1C0E0C"/>
<path d="M607.078 376.975C618.54 381.421 630.463 384.572 642.625 386.37L632.09 403.581C632.09 406.988 647.091 422.764 651.217 436.845C656.2 453.884 651.479 501.327 653.053 508.929C654.039 513.68 649.098 523.566 644.267 528.142C641.358 530.89 637.668 529.866 637.668 529.866C637.668 529.866 645.478 514.258 641.775 502.115C628.125 457.314 601.381 406.197 601.381 399.092C601.381 395.255 603.349 387.988 606.277 379.31L607.078 376.975Z" fill="#FCBE9F" stroke="#070707" stroke-width="2" stroke-linecap="round" stroke-linejoin="round"/>
<path d="M652.513 509.74C654.53 508.651 661.429 514.746 661.077 518.137L644.393 538.757H627.292C627.292 538.757 625.534 531.652 637.655 529.902C649.776 528.152 644.703 513.964 652.513 509.74Z" fill="#F46F40" stroke="black" stroke-width="2" stroke-linecap="round" stroke-linejoin="round"/>
<path d="M607.079 376.975C618.54 381.421 630.463 384.572 642.625 386.37L638.712 392.8C627.812 390.494 616.789 385.718 606.271 379.352L607.079 376.975Z" fill="#1C0E0C"/>
<path d="M723.832 380.783C723.832 380.783 665.1 400.703 604.781 376.068C604.781 376.068 648.842 278.038 652.51 270.7C656.178 263.363 655.926 251.568 655.926 251.568C655.926 251.568 654.084 232.707 648.577 226.416C643.071 220.125 639.927 213.049 642.809 204.132C645.692 195.215 649.094 177.65 649.094 177.65L661.167 173.716L703.739 172.928C703.739 172.928 709.006 179.064 707.872 190.597C706.903 200.609 694.332 228.809 705.229 251.558C710.208 259.681 727.746 274.32 729.866 299.924C732.609 332.963 723.832 380.783 723.832 380.783Z" fill="#F46F40" stroke="black" stroke-width="2" stroke-linecap="round" stroke-linejoin="round"/>
<path d="M657.836 187.4C657.606 178.428 650.591 173.099 643.497 181.968C638.476 188.24 625.524 210.369 618.117 224.53C610.827 213.482 594.653 194.337 585.657 185.911C585.961 182.191 584.164 171.901 583.072 171.133C581.866 170.283 576.182 161.973 576.182 161.973C576.182 161.973 574.088 163.097 576.027 166.537C578.289 170.529 577.788 171.795 577.788 171.795C577.788 171.795 575.248 172.211 574.941 173.887C574.634 175.563 572.653 174.385 571.745 176.93C571.215 178.418 570.004 178.997 570.343 180.482C570.666 181.874 577.572 187.678 581.13 188.682C586.051 203.425 601.352 237.177 615.742 246.11C618.848 247.538 624.041 245.939 630.694 238.036C658.433 205.117 658.033 194.976 657.836 187.4Z" fill="#FCBE9F" stroke="#070707" stroke-width="2" stroke-linecap="round" stroke-linejoin="round"/>
<path d="M690.251 139.883C689.989 146.698 688.987 157.249 705.209 175.531C713.909 185.333 687.436 188.165 673.26 180.757C663.51 175.667 661.171 173.726 661.171 173.726C661.171 173.726 670.335 172.909 673.903 163.714C676.365 157.368 673.919 150.15 672.684 139.877L690.251 139.883Z" fill="#FCBE9F" stroke="#070707" stroke-width="2" stroke-linecap="round" stroke-linejoin="round"/>
<path d="M686.076 141.217C686.169 142.089 684.373 157.894 674.814 160.791C675.738 155.753 673.46 147.227 672.949 141.207L686.076 141.217Z" fill="#1C0E0C"/>
<path d="M699.457 142.079C701.642 152.572 732.68 149.701 734.758 175.46" stroke="#070707" stroke-width="2" stroke-linecap="round" stroke-linejoin="round"/>
<path d="M701.713 194.311C690.225 189.053 674.203 173.403 690.028 149.394C688.215 148.719 686.305 147.457 685.714 145.154C684.499 140.371 668.099 134.745 667.349 124.714C667.097 121.352 669.637 113.239 686.867 114.173C704.02 115.106 705.578 135.714 700.116 141.921C700.106 141.929 700.097 141.939 700.091 141.95C702.505 153.651 735.385 153.715 730.677 182.555C729.365 190.61 717.046 201.326 701.713 194.311Z" fill="#1C0E0C"/>
<path d="M684.983 145.073C684.941 145.942 683.309 151.607 671.766 154.313C669.672 154.807 664.15 154.959 664.011 153.667C663.856 152.149 662.925 146.155 662.838 142.948C662.812 141.96 659.558 139.744 660.153 139.027C661.978 136.825 665.207 134.296 665.278 133.389C665.817 126.568 668.377 122.767 670.888 122.902C672.322 122.98 670.5 135.633 684.987 139.77C684.987 139.77 689.103 137.635 689.717 139.89C690.331 142.144 684.983 145.073 684.983 145.073Z" fill="#FCBE9F" stroke="#070707" stroke-width="2" stroke-linecap="round" stroke-linejoin="round"/>
<path d="M346.207 524.919C346.207 524.919 340.856 536.038 344.53 540.059H391.729C391.729 540.059 391.468 532.272 380.096 531.045C369.894 529.944 363.68 524.909 363.68 524.909L346.207 524.919Z" fill="#1C0E0C"/>
<path d="M392.265 540.059H343.802C343.447 540.059 343.159 540.347 343.159 540.701V542.213C343.159 542.567 343.447 542.855 343.802 542.855H392.265C392.62 542.855 392.908 542.567 392.908 542.213V540.701C392.908 540.347 392.62 540.059 392.265 540.059Z" fill="#1C0E0C"/>
<path d="M366.752 530.673L368.339 527.098C368.431 526.889 368.565 526.7 368.732 526.544C368.899 526.388 369.096 526.268 369.312 526.19C369.527 526.113 369.756 526.08 369.984 526.094C370.213 526.108 370.436 526.169 370.64 526.272V526.272C371.006 526.456 371.292 526.767 371.445 527.147C371.598 527.526 371.609 527.948 371.474 528.335L371.254 528.939" stroke="#070707" stroke-width="2" stroke-linecap="round" stroke-linejoin="round"/>
<path d="M371.416 532.336L372.95 528.671C373.031 528.488 373.148 528.324 373.295 528.188C373.441 528.051 373.614 527.946 373.802 527.879C373.991 527.812 374.191 527.783 374.39 527.796C374.59 527.808 374.785 527.861 374.964 527.951C375.283 528.112 375.533 528.384 375.667 528.715C375.801 529.047 375.809 529.416 375.691 529.753L375.558 530.26" stroke="#070707" stroke-width="2" stroke-linecap="round" stroke-linejoin="round"/>
<path d="M376.143 533.828L377.151 530.125C377.208 529.934 377.304 529.756 377.431 529.603C377.559 529.45 377.716 529.324 377.894 529.234C378.071 529.143 378.266 529.09 378.465 529.076C378.664 529.063 378.863 529.09 379.052 529.156V529.156C379.75 529.401 380.208 530.073 380.102 531.055" stroke="#070707" stroke-width="2" stroke-linecap="round" stroke-linejoin="round"/>
<path d="M262.159 524.919C262.159 524.919 256.808 536.038 260.482 540.059H305.047C305.047 540.059 304.782 532.273 293.414 531.045C283.209 529.944 276.998 524.909 276.998 524.909L262.159 524.919Z" fill="#1C0E0C"/>
<path d="M305.58 540.059H259.755C259.399 540.059 259.111 540.347 259.111 540.701V542.213C259.111 542.567 259.399 542.855 259.755 542.855H305.58C305.935 542.855 306.223 542.567 306.223 542.213V540.701C306.223 540.347 305.935 540.059 305.58 540.059Z" fill="#1C0E0C"/>
<path d="M280.055 530.673L281.641 527.098C281.734 526.889 281.868 526.701 282.036 526.545C282.203 526.389 282.401 526.269 282.616 526.192C282.832 526.114 283.061 526.081 283.289 526.095C283.518 526.109 283.741 526.169 283.946 526.272V526.272C284.311 526.456 284.597 526.767 284.75 527.147C284.902 527.527 284.912 527.949 284.776 528.335L284.556 528.939" stroke="#070707" stroke-width="2" stroke-linecap="round" stroke-linejoin="round"/>
<path d="M284.734 532.336L286.269 528.671C286.35 528.488 286.467 528.324 286.613 528.188C286.76 528.051 286.932 527.946 287.121 527.879C287.309 527.812 287.509 527.783 287.709 527.796C287.909 527.808 288.104 527.861 288.282 527.951V527.951C288.601 528.113 288.851 528.384 288.984 528.716C289.118 529.047 289.127 529.416 289.009 529.753L288.877 530.26" stroke="#070707" stroke-width="2" stroke-linecap="round" stroke-linejoin="round"/>
<path d="M289.458 533.828L290.47 530.125C290.527 529.934 290.622 529.756 290.75 529.603C290.877 529.45 291.035 529.324 291.212 529.234C291.39 529.143 291.584 529.09 291.783 529.076C291.982 529.063 292.182 529.09 292.37 529.156V529.156C293.068 529.401 293.527 530.073 293.42 531.055" stroke="#070707" stroke-width="2" stroke-linecap="round" stroke-linejoin="round"/>
<path d="M359.368 284.697C362.923 297.938 364.145 342.445 365.295 408.031C366.132 455.619 370.268 523.365 370.268 523.365C370.268 523.365 359.391 528.087 340.164 524.418C340.164 524.418 321.744 463.767 328.307 419.583C329.354 412.504 319.398 370.575 319.398 370.575C319.398 370.575 279.761 513.586 279.761 525.29C279.761 525.29 264.311 528.258 255.133 525.29C255.133 525.29 241.27 460.14 263.264 422.196C275.107 401.762 272.393 327.03 272.716 321.007C273.805 299.763 284.207 283.764 284.207 283.764L359.368 284.697Z" fill="#C5DCDD" stroke="black" stroke-width="2" stroke-linecap="round" stroke-linejoin="round"/>
<path d="M319.398 371.101C318.086 365.333 311.251 323.626 309.416 322.041C307.581 320.455 304.433 318.372 302.336 316.273" stroke="#070707" stroke-width="2" stroke-linecap="round" stroke-linejoin="round"/>
<path d="M360.613 291.163C333.106 305.812 291.346 298.642 281.389 288.847C282.239 287.106 283.178 285.409 284.201 283.764L359.375 284.697C359.912 286.827 360.325 288.985 360.613 291.163Z" fill="#1C0E0C"/>
<path d="M285.855 259.581C285.638 260.998 285.331 262.401 284.934 263.779C274.086 263.605 264.495 262.019 259.89 257.601C246.492 244.747 256.562 213.32 257.192 211.418C261.881 214.535 268.625 218.016 278.235 221.239C282.569 238.698 286.531 254.933 285.855 259.581Z" fill="#FCBE9F" stroke="#070707" stroke-width="2" stroke-linecap="round" stroke-linejoin="round"/>
<path d="M257.205 211.412C261.894 214.528 268.638 218.01 278.248 221.233C279.247 225.26 280.226 229.216 281.134 232.985C268.208 227.214 261.655 220.332 256 215.626L257.205 211.412Z" fill="#1C0E0C"/>
<path d="M456.265 153.722C455.618 152.879 454.526 152.708 454.306 152.359C454.087 152.01 454.161 151.132 453.515 150.567C452.868 150.001 451.922 150.089 451.518 149.759C451.114 149.43 451.388 148.467 450.619 147.644C449.85 146.82 448.752 146.924 448.506 146.675C448.26 146.426 452.549 138.963 450.917 137.997C449.285 137.032 440.931 147.615 439.283 150.095C435.89 155.208 435.858 161.625 435.405 163.924C435.37 163.949 435.338 163.977 435.309 164.008C434 165.581 403.045 196.249 397.539 206.474L392.637 199.046L364.49 218.969C364.49 218.969 384.949 248.681 403.042 242.393C420.169 236.441 439.645 178.606 443.239 170.645C449.146 169.479 454.087 162.92 455.696 159.929C457.787 156.073 456.911 154.562 456.265 153.722Z" fill="#FCBE9F" stroke="#070707" stroke-width="2" stroke-linecap="round" stroke-linejoin="round"/>
<path d="M394.004 201.135C389.292 211.997 381.232 221.071 370.999 227.033C368.673 224.473 366.502 221.777 364.497 218.959L392.633 199.052L394.004 201.135Z" fill="#1C0E0C"/>
<path d="M278.235 221.233C282.569 238.698 286.531 254.933 285.855 259.581C284.44 269.331 276.6 281.341 280.274 284.125C290.573 291.976 323.816 300.131 362.047 286.709C362.047 286.709 357.152 277.485 362.445 240.646C363.227 235.201 364.258 227.621 365.305 219.285H365.327C382.503 213.253 395.813 195.328 395.813 195.328C395.813 195.328 387.463 173.167 378.247 165.7C372.43 160.985 342.296 152.537 339.834 151.103L304.078 150.628C301.693 150.828 276.151 158.918 265.652 166.647C256.096 173.681 247.139 201.752 247.139 201.752C247.139 201.752 252.073 212.448 278.235 221.233Z" fill="#F4F1ED" stroke="#070707" stroke-width="2" stroke-linecap="round" stroke-linejoin="round"/>
<path d="M303.008 150.848C305.861 149.52 315.824 139.279 314.254 126.913L336.412 129.432C336.412 129.432 338.625 144.799 342.296 152.556C334.519 154.52 326.521 155.467 318.5 155.375C305.28 155.208 303.008 150.848 303.008 150.848Z" fill="#FCBE9F" stroke="#070707" stroke-width="2" stroke-linecap="round" stroke-linejoin="round"/>
<path d="M339.508 144.84C337.281 144.582 332.534 143.61 330.017 141.288C325.916 137.509 320.161 129.158 320.106 127.63L336.412 129.432C336.412 129.432 337.782 137.138 339.508 144.84Z" fill="#1C0E0C"/>
<path d="M325.457 127.746C325.457 127.746 328.944 133.957 332.518 134.852C336.092 135.746 344.284 135.049 346.775 133.56C348.313 132.643 347.848 125.024 347.554 122.256C347.496 121.723 351.703 119.944 351.432 118.319C351.144 116.595 346.375 112.506 345.954 110.216C344.72 103.496 343.046 97.1496 342.497 96.9138C341.605 96.523 327.577 97.4144 325.919 101.241C324.261 105.068 326.349 116.918 326.349 116.918C326.349 116.918 321.825 114.273 320.468 117.806C318.458 122.983 325.457 127.746 325.457 127.746Z" fill="#FCBE9F" stroke="#070707" stroke-width="2" stroke-linecap="round" stroke-linejoin="round"/>
<path d="M351.681 92.6346C356.554 96.5683 349.228 112.826 334.373 101.283" stroke="black" stroke-width="2" stroke-linecap="round" stroke-linejoin="round"/>
<path d="M298.568 105.187C301.431 100.083 307.06 104.351 307.06 104.351" stroke="black" stroke-width="2" stroke-linecap="round" stroke-linejoin="round"/>
<path d="M347.166 121.365C347.166 121.365 341.673 125.831 338.574 126.209C335.475 126.587 332.902 117.279 331.946 113.165C329.8 103.612 330.052 99.7946 338.936 103.053C350.653 107.352 352.999 92.8672 348.478 90.4288C345.599 88.8786 344.203 89.3599 340.144 91.3977C335.62 93.6842 326.039 86.1141 314.645 89.46C303.945 92.5991 305.577 103.392 305.577 103.392C305.577 103.392 301.357 102.627 300.591 108.792C299.986 113.669 306.756 122.308 311.975 131.971C313.439 134.68 320.536 133.062 322.284 130.33C322.284 130.33 324.623 126.342 321.696 121.501C319.295 117.535 323.428 114.334 327.545 117.793C326.94 120.567 325.632 128.06 328.11 131.926C331.817 137.706 350.921 138.569 351.396 135.355C351.871 132.142 347.166 121.365 347.166 121.365Z" fill="#1C0E0C"/>
<path d="M685.31 144.403C687.924 144.403 690.044 142.285 690.044 139.672C690.044 137.06 687.924 134.942 685.31 134.942C682.695 134.942 680.576 137.06 680.576 139.672C680.576 142.285 682.695 144.403 685.31 144.403Z" fill="#FCBE9F"/>
<path d="M683.51 142.559C683.51 142.559 682.964 140.696 683.468 139.007C683.64 138.396 683.977 137.843 684.443 137.41C684.908 136.977 685.485 136.681 686.108 136.554" stroke="#070707" stroke-width="2" stroke-linecap="round" stroke-linejoin="round"/>
<path d="M686.108 140.238L683.468 139.014" stroke="#070707" stroke-width="2" stroke-linecap="round" stroke-linejoin="round"/>
<path d="M688.826 147.175C690.041 147.175 691.026 146.19 691.026 144.976C691.026 143.761 690.041 142.777 688.826 142.777C687.61 142.777 686.625 143.761 686.625 144.976C686.625 146.19 687.61 147.175 688.826 147.175Z" fill="#F7F3EF" stroke="#070707" stroke-width="2" stroke-linecap="round" stroke-linejoin="round"/>
<path d="M667.827 135.384C668.422 135.384 668.903 134.678 668.903 133.808C668.903 132.938 668.422 132.232 667.827 132.232C667.233 132.232 666.751 132.938 666.751 133.808C666.751 134.678 667.233 135.384 667.827 135.384Z" fill="#1C0E0C"/>
<path d="M664.03 144.976C664.03 144.976 666.467 145.192 667.827 143.546" stroke="#070707" stroke-width="2" stroke-linecap="round" stroke-linejoin="round"/>
<path d="M330.153 127.33C328.01 127.924 325.719 127.643 323.784 126.549C321.848 125.455 320.427 123.637 319.833 121.496C319.238 119.354 319.52 117.065 320.614 115.131C321.709 113.196 323.528 111.776 325.67 111.182" fill="#FCBE9F"/>
<path d="M330.153 127.33C328.01 127.924 325.719 127.643 323.784 126.549C321.848 125.455 320.427 123.637 319.833 121.496C319.238 119.354 319.52 117.065 320.614 115.131C321.709 113.196 323.528 111.776 325.67 111.182" stroke="#070707" stroke-width="2" stroke-linecap="round" stroke-linejoin="round"/>
<path d="M322.804 118.287C322.804 118.287 326.149 116.114 328.656 119.956L322.804 118.287Z" fill="#FCBE9F"/>
<path d="M322.804 118.287C322.804 118.287 326.149 116.114 328.656 119.956" stroke="#070707" stroke-width="2" stroke-linecap="round" stroke-linejoin="round"/>
<path d="M326.561 118.006L324.84 121.364" stroke="#070707" stroke-width="2" stroke-linecap="round" stroke-linejoin="round"/>
<path d="M342.165 114.502C342.887 114.361 343.299 113.366 343.087 112.279C342.875 111.192 342.117 110.425 341.396 110.566C340.674 110.707 340.261 111.702 340.474 112.789C340.686 113.876 341.443 114.643 342.165 114.502Z" fill="#1C0E0C"/>
<path d="M340.27 106.146L337.197 107.805C336.629 108.112 336.417 108.822 336.724 109.39C337.031 109.958 337.74 110.169 338.309 109.862L341.382 108.203C341.951 107.896 342.162 107.187 341.855 106.619C341.548 106.051 340.839 105.839 340.27 106.146Z" fill="#1C0E0C"/>
<path d="M269.449 188.01L278.235 221.233" stroke="#070707" stroke-width="2" stroke-linecap="round" stroke-linejoin="round"/>
<path d="M377.613 168.536C377.613 168.536 358.842 169.679 355.979 190.013" stroke="#070707" stroke-width="2" stroke-linecap="round" stroke-linejoin="round"/>
</g>
<defs>
<clipPath id="clip0_29_2343">
<rect width="904" height="544" fill="white"/>
</clipPath>
</defs>
</svg>
