<svg width="20" height="20" viewBox="0 0 20 20" fill="none" xmlns="http://www.w3.org/2000/svg">
<path d="M14.6781 12.9298C15.8884 11.2782 16.4305 9.23057 16.1959 7.19648C15.9613 5.16238 14.9673 3.29186 13.4128 1.95915C11.8583 0.626437 9.85794 -0.0701841 7.81187 0.00865439C5.76581 0.0874929 3.82496 0.935976 2.37762 2.38435C0.930277 3.83273 0.0831823 5.77419 0.00580795 7.82031C-0.0715664 9.86643 0.626485 11.8663 1.96031 13.4199C3.29413 14.9734 5.16536 15.966 7.19963 16.1992C9.23389 16.4323 11.2812 15.8888 12.9319 14.6773H12.9306C12.9681 14.7273 13.0081 14.7748 13.0531 14.821L17.8654 19.6333C18.0998 19.8679 18.4178 19.9997 18.7493 19.9998C19.0809 19.9999 19.399 19.8683 19.6335 19.6339C19.8681 19.3996 19.9999 19.0816 20 18.75C20.0001 18.4185 19.8685 18.1004 19.6341 17.8659L14.8218 13.0536C14.7771 13.0083 14.7291 12.9665 14.6781 12.9286V12.9298ZM15.0006 8.125C15.0006 9.02781 14.8227 9.92177 14.4773 10.7559C14.1318 11.5899 13.6254 12.3478 12.987 12.9862C12.3486 13.6246 11.5907 14.1309 10.7567 14.4764C9.92258 14.8219 9.02862 14.9997 8.12582 14.9997C7.22301 14.9997 6.32905 14.8219 5.49497 14.4764C4.66089 14.1309 3.90302 13.6246 3.26464 12.9862C2.62626 12.3478 2.11987 11.5899 1.77438 10.7559C1.4289 9.92177 1.25108 9.02781 1.25108 8.125C1.25108 6.30171 1.97538 4.55309 3.26464 3.26383C4.55391 1.97456 6.30252 1.25026 8.12582 1.25026C9.94911 1.25026 11.6977 1.97456 12.987 3.26383C14.2763 4.55309 15.0006 6.30171 15.0006 8.125Z" fill="#DB6B97"/>
</svg>
